<?xml version="1.0" encoding="utf-8"?>
<!-- Generator: Adobe Illustrator 23.0.3, SVG Export Plug-In . SVG Version: 6.00 Build 0)  -->
<svg version="1.1" id="Capa_1" xmlns="http://www.w3.org/2000/svg" xmlns:xlink="http://www.w3.org/1999/xlink" x="0px" y="0px"
	 viewBox="0 0 512 512" style="enable-background:new 0 0 512 512;" xml:space="preserve">
<style type="text/css">
	.st0{fill:#111111;}
</style>
<path class="st0" d="M247.33,179.37c0,0-98.59,17-185.28-83.29c-17,28.9-13.14,92.39,20.26,112.83c-24.42-0.5-37.38-2.49-37.38-2.49
	s-9.97,52.83,62.8,85.23c-27.41,0.5-36.38,0-36.38,0s9.97,70.27,88.22,59.81c-19.94,20.93-26.41,45.35-125.6,45.35
	c34.39,23.92,90.21,66.29,227.27,29.41c48.34-20.43,125.1-38.87,167.46-173.94c5.98-19.94,7.48-67.78,5.48-86.22
	c19.44-23.42,43.86-47.85,43.86-47.85l-40.87,5.98l24.92-38.38l-57.32,16.95c0,0-23.92-40.87-84.73-29.41
	C295.12,77.33,244.89,93.51,247.33,179.37z"/>
</svg>
